<mxfile host="65bd71144e">
    <diagram id="bq61pvqDJBY21T4XckcP" name="ページ1">
        <mxGraphModel dx="627" dy="797" grid="1" gridSize="10" guides="1" tooltips="1" connect="1" arrows="1" fold="1" page="1" pageScale="1" pageWidth="827" pageHeight="1169" background="#ffffff" math="1" shadow="0">
            <root>
                <mxCell id="0"/>
                <mxCell id="1" parent="0"/>
                <mxCell id="14" style="edgeStyle=none;html=1;exitX=0.5;exitY=1;exitDx=0;exitDy=0;exitPerimeter=0;entryX=0.5;entryY=0;entryDx=0;entryDy=0;" parent="1" source="15" target="57" edge="1">
                    <mxGeometry relative="1" as="geometry">
                        <mxPoint x="280" y="260" as="targetPoint"/>
                    </mxGeometry>
                </mxCell>
                <mxCell id="15" value="開始" style="strokeWidth=2;html=1;shape=mxgraph.flowchart.terminator;whiteSpace=wrap;" parent="1" vertex="1">
                    <mxGeometry x="240" y="200" width="80" height="40" as="geometry"/>
                </mxCell>
                <mxCell id="42" value="終了" style="strokeWidth=2;html=1;shape=mxgraph.flowchart.terminator;whiteSpace=wrap;" parent="1" vertex="1">
                    <mxGeometry x="240" y="640" width="80" height="40" as="geometry"/>
                </mxCell>
                <mxCell id="43" style="edgeStyle=none;html=1;exitX=0.5;exitY=1;exitDx=0;exitDy=0;entryX=0.5;entryY=0;entryDx=0;entryDy=0;entryPerimeter=0;" parent="1" target="42" edge="1">
                    <mxGeometry relative="1" as="geometry">
                        <mxPoint x="280" y="580" as="sourcePoint"/>
                    </mxGeometry>
                </mxCell>
                <mxCell id="55" value="Loop&lt;div&gt;i ≦ 30&lt;/div&gt;" style="strokeWidth=2;html=1;shape=mxgraph.flowchart.loop_limit;whiteSpace=wrap;" parent="1" vertex="1">
                    <mxGeometry x="220" y="320" width="120" height="40" as="geometry"/>
                </mxCell>
                <mxCell id="56" value="Loop" style="strokeWidth=2;html=1;shape=mxgraph.flowchart.loop_limit;whiteSpace=wrap;direction=west;" parent="1" vertex="1">
                    <mxGeometry x="220" y="580" width="120" height="40" as="geometry"/>
                </mxCell>
                <mxCell id="57" value="i = 1" style="rounded=1;whiteSpace=wrap;html=1;absoluteArcSize=1;arcSize=14;strokeWidth=2;" parent="1" vertex="1">
                    <mxGeometry x="220" y="260" width="120" height="40" as="geometry"/>
                </mxCell>
                <mxCell id="60" style="edgeStyle=none;html=1;exitX=0.5;exitY=1;exitDx=0;exitDy=0;entryX=0.5;entryY=0;entryDx=0;entryDy=0;entryPerimeter=0;" parent="1" source="57" target="55" edge="1">
                    <mxGeometry relative="1" as="geometry"/>
                </mxCell>
                <mxCell id="78" value="i が3の倍数?" style="strokeWidth=2;html=1;shape=mxgraph.flowchart.decision;whiteSpace=wrap;" vertex="1" parent="1">
                    <mxGeometry x="220" y="380" width="120" height="40" as="geometry"/>
                </mxCell>
                <mxCell id="79" style="edgeStyle=none;html=1;exitX=0.5;exitY=1;exitDx=0;exitDy=0;exitPerimeter=0;entryX=0.5;entryY=0;entryDx=0;entryDy=0;entryPerimeter=0;" edge="1" parent="1" source="55" target="78">
                    <mxGeometry relative="1" as="geometry"/>
                </mxCell>
                <mxCell id="84" style="edgeStyle=orthogonalEdgeStyle;html=1;exitX=1;exitY=0.5;exitDx=0;exitDy=0;exitPerimeter=0;entryX=0.5;entryY=0;entryDx=0;entryDy=0;" edge="1" parent="1" source="80" target="82">
                    <mxGeometry relative="1" as="geometry"/>
                </mxCell>
                <mxCell id="85" style="edgeStyle=none;html=1;exitX=0.5;exitY=1;exitDx=0;exitDy=0;exitPerimeter=0;entryX=0.5;entryY=0;entryDx=0;entryDy=0;" edge="1" parent="1" source="80" target="81">
                    <mxGeometry relative="1" as="geometry"/>
                </mxCell>
                <mxCell id="80" value="i が5の倍数?" style="strokeWidth=2;html=1;shape=mxgraph.flowchart.decision;whiteSpace=wrap;" vertex="1" parent="1">
                    <mxGeometry x="380" y="380" width="120" height="40" as="geometry"/>
                </mxCell>
                <mxCell id="101" style="edgeStyle=none;html=1;exitX=0.5;exitY=1;exitDx=0;exitDy=0;" edge="1" parent="1" source="81">
                    <mxGeometry relative="1" as="geometry">
                        <mxPoint x="440" y="560" as="targetPoint"/>
                    </mxGeometry>
                </mxCell>
                <mxCell id="81" value="print(&quot;Fizz&quot;)" style="rounded=1;whiteSpace=wrap;html=1;absoluteArcSize=1;arcSize=14;strokeWidth=2;" vertex="1" parent="1">
                    <mxGeometry x="380" y="500" width="120" height="40" as="geometry"/>
                </mxCell>
                <mxCell id="100" style="edgeStyle=orthogonalEdgeStyle;html=1;exitX=0.5;exitY=1;exitDx=0;exitDy=0;" edge="1" parent="1" source="82">
                    <mxGeometry relative="1" as="geometry">
                        <mxPoint x="280" y="560" as="targetPoint"/>
                        <Array as="points">
                            <mxPoint x="600" y="560"/>
                        </Array>
                    </mxGeometry>
                </mxCell>
                <mxCell id="82" value="print(&quot;FizzBuzz&quot;)" style="rounded=1;whiteSpace=wrap;html=1;absoluteArcSize=1;arcSize=14;strokeWidth=2;" vertex="1" parent="1">
                    <mxGeometry x="540" y="500" width="120" height="40" as="geometry"/>
                </mxCell>
                <mxCell id="83" style="edgeStyle=none;html=1;exitX=1;exitY=0.5;exitDx=0;exitDy=0;exitPerimeter=0;entryX=0;entryY=0.5;entryDx=0;entryDy=0;entryPerimeter=0;" edge="1" parent="1" source="78" target="80">
                    <mxGeometry relative="1" as="geometry"/>
                </mxCell>
                <mxCell id="93" style="edgeStyle=orthogonalEdgeStyle;html=1;exitX=0;exitY=0.5;exitDx=0;exitDy=0;exitPerimeter=0;entryX=0.5;entryY=0;entryDx=0;entryDy=0;" edge="1" parent="1" source="86" target="88">
                    <mxGeometry relative="1" as="geometry"/>
                </mxCell>
                <mxCell id="95" style="edgeStyle=none;html=1;exitX=0.5;exitY=1;exitDx=0;exitDy=0;exitPerimeter=0;entryX=0.5;entryY=0;entryDx=0;entryDy=0;" edge="1" parent="1" source="86" target="94">
                    <mxGeometry relative="1" as="geometry"/>
                </mxCell>
                <mxCell id="86" value="i が5の倍数?" style="strokeWidth=2;html=1;shape=mxgraph.flowchart.decision;whiteSpace=wrap;" vertex="1" parent="1">
                    <mxGeometry x="220" y="440" width="120" height="40" as="geometry"/>
                </mxCell>
                <mxCell id="87" style="edgeStyle=none;html=1;exitX=0.5;exitY=1;exitDx=0;exitDy=0;exitPerimeter=0;entryX=0.5;entryY=0;entryDx=0;entryDy=0;entryPerimeter=0;" edge="1" parent="1" source="78" target="86">
                    <mxGeometry relative="1" as="geometry"/>
                </mxCell>
                <mxCell id="99" style="edgeStyle=orthogonalEdgeStyle;html=1;exitX=0.5;exitY=1;exitDx=0;exitDy=0;" edge="1" parent="1" source="88">
                    <mxGeometry relative="1" as="geometry">
                        <mxPoint x="280" y="560" as="targetPoint"/>
                        <Array as="points">
                            <mxPoint x="120" y="560"/>
                        </Array>
                    </mxGeometry>
                </mxCell>
                <mxCell id="88" value="print(&quot;Buzz&quot;)" style="rounded=1;whiteSpace=wrap;html=1;absoluteArcSize=1;arcSize=14;strokeWidth=2;" vertex="1" parent="1">
                    <mxGeometry x="60" y="500" width="120" height="40" as="geometry"/>
                </mxCell>
                <mxCell id="89" value="Yes" style="text;html=1;align=center;verticalAlign=middle;whiteSpace=wrap;rounded=0;" vertex="1" parent="1">
                    <mxGeometry x="330" y="380" width="40" height="20" as="geometry"/>
                </mxCell>
                <mxCell id="90" value="Yes" style="text;html=1;align=center;verticalAlign=middle;whiteSpace=wrap;rounded=0;" vertex="1" parent="1">
                    <mxGeometry x="490" y="380" width="40" height="20" as="geometry"/>
                </mxCell>
                <mxCell id="91" value="No" style="text;html=1;align=center;verticalAlign=middle;whiteSpace=wrap;rounded=0;" vertex="1" parent="1">
                    <mxGeometry x="400" y="420" width="40" height="20" as="geometry"/>
                </mxCell>
                <mxCell id="92" value="No" style="text;html=1;align=center;verticalAlign=middle;whiteSpace=wrap;rounded=0;" vertex="1" parent="1">
                    <mxGeometry x="280" y="420" width="40" height="20" as="geometry"/>
                </mxCell>
                <mxCell id="94" value="print(i)" style="rounded=1;whiteSpace=wrap;html=1;absoluteArcSize=1;arcSize=14;strokeWidth=2;" vertex="1" parent="1">
                    <mxGeometry x="220" y="500" width="120" height="40" as="geometry"/>
                </mxCell>
                <mxCell id="96" value="No" style="text;html=1;align=center;verticalAlign=middle;whiteSpace=wrap;rounded=0;" vertex="1" parent="1">
                    <mxGeometry x="280" y="480" width="40" height="20" as="geometry"/>
                </mxCell>
                <mxCell id="97" value="Yes" style="text;html=1;align=center;verticalAlign=middle;whiteSpace=wrap;rounded=0;" vertex="1" parent="1">
                    <mxGeometry x="190" y="440" width="40" height="20" as="geometry"/>
                </mxCell>
                <mxCell id="98" style="edgeStyle=none;html=1;exitX=0.5;exitY=1;exitDx=0;exitDy=0;entryX=0.5;entryY=1;entryDx=0;entryDy=0;entryPerimeter=0;" edge="1" parent="1" source="94" target="56">
                    <mxGeometry relative="1" as="geometry"/>
                </mxCell>
            </root>
        </mxGraphModel>
    </diagram>
</mxfile>